<?xml version="1.0" encoding="utf-8"?>
<!-- Generator: Adobe Illustrator 24.0.1, SVG Export Plug-In . SVG Version: 6.00 Build 0)  -->
<svg version="1.1" id="Layer_1" xmlns="http://www.w3.org/2000/svg" xmlns:xlink="http://www.w3.org/1999/xlink" x="0px" y="0px"
	 viewBox="0 0 1366 768" style="enable-background:new 0 0 1366 768;" xml:space="preserve">
<style type="text/css">
	.st0{fill:#331C0B;}
	.st1{fill:#A05C24;}
	.st2{fill:#FFFFFF;}
	.st3{opacity:0.8;fill:#A05C24;}
	.st4{opacity:0.8;fill:#331C0B;}
	.st5{fill:#603813;}
	.st6{fill:none;}
</style>
<g>
	<g>
		
			<rect x="99.84" y="-1037.39" transform="matrix(0.9651 -0.2617 0.2617 0.9651 235.3129 -2.3494)" class="st0" width="18" height="305.66"/>
	</g>
	<g>
		
			<rect x="465.01" y="-893.56" transform="matrix(0.2617 -0.9651 0.9651 0.2617 1309.8542 -56.7432)" class="st0" width="305.66" height="18"/>
	</g>
	<g>
		<g>
			<g>
				<path class="st1" d="M363.99-818.13h-30.13c-2.33,0-4.22-1.89-4.22-4.22v-1.9c0-2.33,1.89-4.22,4.22-4.22h30.13
					c2.33,0,4.22,1.89,4.22,4.22v1.9C368.22-820.02,366.32-818.13,363.99-818.13z"/>
				<rect x="360.37" y="-829.74" class="st1" width="4.71" height="2.2"/>
			</g>
			<path class="st0" d="M370.24-806.14c0.05-0.73-0.56-1.33-1.37-1.33c-13.3,0-26.59,0-39.89,0c-0.81,0-1.43,0.59-1.37,1.33
				c0.34,4.58,0.68,9.15,1.02,13.73h40.6C369.56-796.99,369.9-801.56,370.24-806.14z"/>
			<path class="st1" d="M369.63-792.56h-41.41c0.39,5.23,0.77,10.45,1.16,15.68h39.1C368.86-782.11,369.24-787.34,369.63-792.56z"/>
			<path class="st0" d="M329.76-777.04c0.63,8.55,1.26,17.1,1.9,25.65c0.05,0.73,0.63,1.33,1.28,1.33c10.66,0,21.32,0,31.98,0
				c0.65,0,1.22-0.59,1.28-1.33c0.63-8.55,1.26-17.1,1.9-25.65H329.76z"/>
			<path class="st1" d="M370.89-805.9h-43.94c-2.33,0-4.22-1.89-4.22-4.22v-1.9c0-2.33,1.89-4.22,4.22-4.22h43.94
				c2.33,0,4.22,1.89,4.22,4.22v1.9C375.12-807.79,373.22-805.9,370.89-805.9z"/>
			<path class="st0" d="M356.59-783.77c-0.64,0.17-1.3,0.3-1.97,0.38c-0.33,0.04-0.67,0.06-1.01,0.08c-0.09,0-0.17,0-0.26,0l-0.13,0
				l-0.13,0c-0.09,0-0.17-0.01-0.26-0.01l-0.26-0.02c-0.34-0.04-0.69-0.08-1.03-0.18l-0.13-0.03l-0.13-0.04
				c-0.08-0.03-0.17-0.05-0.25-0.08l-0.25-0.1l-0.06-0.02l-0.06-0.03l-0.12-0.06c-0.16-0.07-0.32-0.17-0.47-0.26l-0.22-0.15
				l-0.05-0.04l-0.05-0.04l-0.09-0.06l-0.09-0.06c-0.03-0.02-0.06-0.04-0.09-0.06l-0.18-0.12c-0.06-0.04-0.13-0.07-0.19-0.11
				c-0.06-0.04-0.13-0.07-0.19-0.1c-0.52-0.26-1.1-0.41-1.7-0.48c-0.6-0.07-1.22-0.04-1.84,0.05c-0.62,0.09-1.23,0.24-1.82,0.47
				l-0.03-0.05c0.27-0.17,0.56-0.31,0.86-0.44c0.3-0.13,0.6-0.24,0.91-0.33c0.62-0.19,1.27-0.3,1.94-0.31
				c0.33,0,0.67,0.02,1.01,0.07c0.08,0.01,0.17,0.03,0.25,0.04l0.25,0.05c0.16,0.05,0.33,0.09,0.49,0.15
				c0.08,0.03,0.16,0.06,0.24,0.09c0.08,0.03,0.16,0.07,0.24,0.1l0.23,0.12c0.04,0.02,0.08,0.04,0.11,0.06l0.11,0.07l0.11,0.07
				l0.03,0.02l0.02,0.01l0.05,0.03l0.18,0.1c0.13,0.05,0.25,0.12,0.38,0.16l0.1,0.04l0.05,0.02l0.05,0.01l0.2,0.06
				c0.07,0.02,0.14,0.03,0.21,0.04l0.1,0.02l0.11,0.01c0.28,0.05,0.57,0.06,0.86,0.06c0.58,0,1.17-0.07,1.76-0.19
				c0.29-0.06,0.58-0.13,0.87-0.21c0.29-0.08,0.58-0.17,0.86-0.27c0.21-0.07,0.42-0.15,0.63-0.23c-0.55-2.29-3.83-4.05-7.81-4.05
				c-4.36,0-7.89,2.12-7.89,4.73s3.53,4.73,7.89,4.73c3.77,0,6.92-1.58,7.7-3.7C356.64-783.78,356.61-783.77,356.59-783.77z"/>
		</g>
		<g>
			<g>
				<path class="st1" d="M423.44-818.13H393.3c-2.33,0-4.22-1.89-4.22-4.22v-1.9c0-2.33,1.89-4.22,4.22-4.22h30.13
					c2.33,0,4.22,1.89,4.22,4.22v1.9C427.66-820.02,425.77-818.13,423.44-818.13z"/>
				<rect x="419.82" y="-829.74" class="st1" width="4.71" height="2.2"/>
			</g>
			<path class="st0" d="M429.69-806.14c0.05-0.73-0.56-1.33-1.37-1.33c-13.3,0-26.59,0-39.89,0c-0.81,0-1.43,0.59-1.37,1.33
				c0.34,4.58,0.68,9.15,1.02,13.73h40.6C429.01-796.99,429.35-801.56,429.69-806.14z"/>
			<path class="st1" d="M429.08-792.56h-41.41c0.39,5.23,0.77,10.45,1.16,15.68h39.1C428.3-782.11,428.69-787.34,429.08-792.56z"/>
			<path class="st0" d="M389.21-777.04c0.63,8.55,1.26,17.1,1.9,25.65c0.05,0.73,0.63,1.33,1.28,1.33c10.66,0,21.32,0,31.98,0
				c0.65,0,1.22-0.59,1.28-1.33c0.63-8.55,1.26-17.1,1.9-25.65H389.21z"/>
			<path class="st1" d="M430.34-805.9H386.4c-2.33,0-4.22-1.89-4.22-4.22v-1.9c0-2.33,1.89-4.22,4.22-4.22h43.94
				c2.33,0,4.22,1.89,4.22,4.22v1.9C434.56-807.79,432.67-805.9,430.34-805.9z"/>
			<path class="st0" d="M416.04-783.77c-0.64,0.17-1.3,0.3-1.97,0.38c-0.33,0.04-0.67,0.06-1.01,0.08c-0.09,0-0.17,0-0.26,0l-0.13,0
				l-0.13,0c-0.09,0-0.17-0.01-0.26-0.01l-0.26-0.02c-0.34-0.04-0.69-0.08-1.03-0.18l-0.13-0.03l-0.13-0.04
				c-0.08-0.03-0.17-0.05-0.25-0.08l-0.25-0.1l-0.06-0.02l-0.06-0.03l-0.12-0.06c-0.16-0.07-0.32-0.17-0.47-0.26l-0.22-0.15
				l-0.05-0.04l-0.05-0.04l-0.09-0.06l-0.09-0.06c-0.03-0.02-0.06-0.04-0.09-0.06l-0.18-0.12c-0.06-0.04-0.13-0.07-0.19-0.11
				c-0.06-0.04-0.13-0.07-0.19-0.1c-0.52-0.26-1.1-0.41-1.7-0.48c-0.6-0.07-1.22-0.04-1.84,0.05c-0.62,0.09-1.23,0.24-1.82,0.47
				l-0.03-0.05c0.27-0.17,0.56-0.31,0.86-0.44c0.3-0.13,0.6-0.24,0.91-0.33c0.62-0.19,1.27-0.3,1.94-0.31
				c0.33,0,0.67,0.02,1.01,0.07c0.08,0.01,0.17,0.03,0.25,0.04l0.25,0.05c0.16,0.05,0.33,0.09,0.49,0.15
				c0.08,0.03,0.16,0.06,0.24,0.09c0.08,0.03,0.16,0.07,0.24,0.1l0.23,0.12c0.04,0.02,0.08,0.04,0.11,0.06l0.11,0.07l0.11,0.07
				l0.03,0.02l0.02,0.01l0.05,0.03l0.18,0.1c0.13,0.05,0.25,0.12,0.38,0.16l0.1,0.04l0.05,0.02l0.05,0.01l0.2,0.06
				c0.07,0.02,0.14,0.03,0.21,0.04l0.1,0.02l0.11,0.01c0.28,0.05,0.57,0.06,0.86,0.06c0.58,0,1.17-0.07,1.76-0.19
				c0.29-0.06,0.58-0.13,0.87-0.21c0.29-0.08,0.58-0.17,0.86-0.27c0.21-0.07,0.42-0.15,0.63-0.23c-0.55-2.29-3.83-4.05-7.81-4.05
				c-4.36,0-7.89,2.12-7.89,4.73s3.53,4.73,7.89,4.73c3.77,0,6.92-1.58,7.7-3.7C416.09-783.78,416.06-783.77,416.04-783.77z"/>
		</g>
	</g>
	<g>
		<g>
			<g>
				<path class="st0" d="M512.41-783.35c0.02-0.07,0.03-0.11,0.03-0.11h-20.07h-3.62h-20.07c0,0,3.46,12.01,10.37,17.28
					s6.58,13.49,6.58,13.49h3.13h3.62h3.13c0,0-0.33-8.23,6.58-13.49c1.12-0.85,2.14-1.88,3.08-3c1.59,1.88,3.96,3.08,6.61,3.08
					c4.76,0,8.64-3.87,8.64-8.64C520.4-779.28,516.87-783.02,512.41-783.35z M511.76-767.58c-2.31,0-4.36-1.1-5.67-2.8
					c3.03-4.1,4.98-9.04,5.84-11.51c3.87,0.09,6.99,3.26,6.99,7.15C518.92-770.79,515.71-767.58,511.76-767.58z"/>
				<path class="st0" d="M503.06-752.2h-25.01c-0.27,0-0.49,0.22-0.49,0.49s0.22,0.49,0.49,0.49h25.01c0.27,0,0.49-0.22,0.49-0.49
					S503.34-752.2,503.06-752.2z"/>
				<path class="st0" d="M499.61-751.05h-18.1c-0.27,0-0.49,0.22-0.49,0.49s0.22,0.49,0.49,0.49h18.1c0.27,0,0.49-0.22,0.49-0.49
					S499.88-751.05,499.61-751.05z"/>
			</g>
			<g>
				<path class="st0" d="M486.28-803.49c-0.09,0.71-0.18,1.4-0.25,2.09c-0.07,0.69-0.12,1.37-0.12,2.04l0,0.25l0,0.25
					c0,0.17,0.01,0.33,0.02,0.49c0.02,0.33,0.06,0.65,0.11,0.96c0.06,0.31,0.13,0.61,0.22,0.9c0.1,0.29,0.22,0.55,0.37,0.79
					l0.11,0.18l0.13,0.16l0.03,0.04l0.05,0.06l0.1,0.12l0.09,0.12l0.09,0.13c0.23,0.34,0.41,0.7,0.54,1.08
					c0.13,0.38,0.22,0.76,0.27,1.14l0.03,0.29c0.01,0.1,0.01,0.19,0.02,0.29c0.01,0.1,0,0.19,0,0.28c0,0.09,0,0.19-0.01,0.28
					c-0.03,0.75-0.18,1.48-0.4,2.17c-0.11,0.35-0.24,0.68-0.39,1.01c-0.15,0.33-0.31,0.65-0.52,0.94c0.1-0.71,0.18-1.4,0.22-2.08
					c0.04-0.68,0.04-1.36-0.04-2.01c-0.01-0.08-0.02-0.16-0.03-0.24c-0.01-0.08-0.02-0.16-0.04-0.24c-0.02-0.08-0.03-0.16-0.04-0.24
					l-0.05-0.23c-0.08-0.3-0.17-0.6-0.29-0.87c-0.03-0.07-0.06-0.14-0.09-0.2l-0.1-0.2c-0.08-0.13-0.15-0.25-0.24-0.37l-0.06-0.09
					l-0.07-0.08l-0.15-0.18l-0.2-0.25c-0.06-0.09-0.12-0.17-0.17-0.26c-0.22-0.36-0.38-0.73-0.5-1.12
					c-0.11-0.38-0.19-0.77-0.22-1.15c-0.07-0.76-0.02-1.51,0.1-2.23c0.12-0.72,0.31-1.42,0.56-2.1c0.12-0.34,0.26-0.67,0.41-0.99
					C485.92-802.87,486.09-803.18,486.28-803.49z"/>
				<path class="st0" d="M493.27-815.71c-0.16,1.25-0.32,2.47-0.44,3.68c-0.12,1.21-0.21,2.41-0.22,3.59l0,0.44l0.01,0.44
					c0,0.29,0.02,0.58,0.03,0.87c0.04,0.58,0.1,1.14,0.19,1.69c0.1,0.55,0.22,1.08,0.39,1.58c0.17,0.5,0.39,0.97,0.65,1.39l0.2,0.31
					l0.23,0.29l0.06,0.08l0.08,0.11l0.17,0.21l0.17,0.21l0.15,0.22c0.4,0.6,0.73,1.24,0.95,1.9c0.23,0.66,0.39,1.34,0.48,2.01
					l0.05,0.5c0.02,0.17,0.02,0.34,0.03,0.5c0.01,0.17,0.01,0.33,0.01,0.5c0,0.17,0,0.33-0.01,0.5c-0.06,1.32-0.31,2.6-0.7,3.81
					c-0.2,0.61-0.42,1.2-0.68,1.78c-0.26,0.58-0.55,1.14-0.91,1.66c0.18-1.25,0.32-2.46,0.38-3.67c0.06-1.2,0.07-2.39-0.06-3.53
					c-0.01-0.14-0.03-0.28-0.05-0.43c-0.02-0.14-0.04-0.28-0.07-0.42c-0.03-0.14-0.04-0.28-0.07-0.41l-0.09-0.41
					c-0.14-0.54-0.3-1.05-0.52-1.54c-0.06-0.12-0.11-0.24-0.17-0.36l-0.18-0.35c-0.14-0.22-0.27-0.45-0.42-0.65l-0.11-0.16
					l-0.12-0.15l-0.27-0.33l-0.35-0.44c-0.11-0.15-0.2-0.31-0.3-0.46c-0.38-0.63-0.67-1.29-0.87-1.96
					c-0.19-0.67-0.33-1.35-0.39-2.02c-0.12-1.34-0.04-2.66,0.17-3.93c0.21-1.27,0.55-2.5,0.98-3.69c0.22-0.59,0.46-1.18,0.73-1.75
					C492.63-814.62,492.93-815.18,493.27-815.71z"/>
			</g>
		</g>
		<g>
			<g>
				<path class="st0" d="M567.55-783.35c0.02-0.07,0.03-0.11,0.03-0.11h-20.07h-3.62h-20.07c0,0,3.46,12.01,10.37,17.28
					s6.58,13.49,6.58,13.49h3.13h3.62h3.13c0,0-0.33-8.23,6.58-13.49c1.12-0.85,2.14-1.88,3.08-3c1.59,1.88,3.96,3.08,6.61,3.08
					c4.76,0,8.64-3.87,8.64-8.64C575.54-779.28,572.01-783.02,567.55-783.35z M566.9-767.58c-2.31,0-4.36-1.1-5.67-2.8
					c3.03-4.1,4.98-9.04,5.84-11.51c3.87,0.09,6.99,3.26,6.99,7.15C574.06-770.79,570.85-767.58,566.9-767.58z"/>
				<path class="st0" d="M558.21-752.2H533.2c-0.27,0-0.49,0.22-0.49,0.49s0.22,0.49,0.49,0.49h25.01c0.27,0,0.49-0.22,0.49-0.49
					S558.48-752.2,558.21-752.2z"/>
				<path class="st0" d="M554.75-751.05h-18.1c-0.27,0-0.49,0.22-0.49,0.49s0.22,0.49,0.49,0.49h18.1c0.27,0,0.49-0.22,0.49-0.49
					S555.02-751.05,554.75-751.05z"/>
			</g>
			<g>
				<path class="st0" d="M541.42-803.49c-0.09,0.71-0.18,1.4-0.25,2.09c-0.07,0.69-0.12,1.37-0.12,2.04l0,0.25l0,0.25
					c0,0.17,0.01,0.33,0.02,0.49c0.02,0.33,0.06,0.65,0.11,0.96c0.06,0.31,0.13,0.61,0.22,0.9c0.1,0.29,0.22,0.55,0.37,0.79
					l0.11,0.18l0.13,0.16l0.03,0.04l0.05,0.06l0.1,0.12l0.09,0.12l0.09,0.13c0.23,0.34,0.41,0.7,0.54,1.08
					c0.13,0.38,0.22,0.76,0.27,1.14l0.03,0.29c0.01,0.1,0.01,0.19,0.02,0.29c0.01,0.1,0,0.19,0,0.28c0,0.09,0,0.19-0.01,0.28
					c-0.03,0.75-0.18,1.48-0.4,2.17c-0.11,0.35-0.24,0.68-0.39,1.01c-0.15,0.33-0.31,0.65-0.52,0.94c0.1-0.71,0.18-1.4,0.22-2.08
					c0.04-0.68,0.04-1.36-0.04-2.01c-0.01-0.08-0.02-0.16-0.03-0.24c-0.01-0.08-0.02-0.16-0.04-0.24c-0.02-0.08-0.03-0.16-0.04-0.24
					l-0.05-0.23c-0.08-0.3-0.17-0.6-0.29-0.87c-0.03-0.07-0.06-0.14-0.09-0.2l-0.1-0.2c-0.08-0.13-0.15-0.25-0.24-0.37l-0.06-0.09
					l-0.07-0.08l-0.15-0.18l-0.2-0.25c-0.06-0.09-0.12-0.17-0.17-0.26c-0.22-0.36-0.38-0.73-0.5-1.12
					c-0.11-0.38-0.19-0.77-0.22-1.15c-0.07-0.76-0.02-1.51,0.1-2.23c0.12-0.72,0.31-1.42,0.56-2.1c0.12-0.34,0.26-0.67,0.41-0.99
					C541.06-802.87,541.23-803.18,541.42-803.49z"/>
				<path class="st0" d="M548.41-815.71c-0.16,1.25-0.32,2.47-0.44,3.68c-0.12,1.21-0.21,2.41-0.22,3.59l0,0.44l0.01,0.44
					c0,0.29,0.02,0.58,0.03,0.87c0.04,0.58,0.1,1.14,0.19,1.69c0.1,0.55,0.22,1.08,0.39,1.58c0.17,0.5,0.39,0.97,0.65,1.39l0.2,0.31
					l0.23,0.29l0.06,0.08l0.08,0.11l0.17,0.21l0.17,0.21l0.15,0.22c0.4,0.6,0.73,1.24,0.95,1.9c0.23,0.66,0.39,1.34,0.48,2.01
					l0.05,0.5c0.02,0.17,0.02,0.34,0.03,0.5c0.01,0.17,0.01,0.33,0.01,0.5c0,0.17,0,0.33-0.01,0.5c-0.06,1.32-0.31,2.6-0.7,3.81
					c-0.2,0.61-0.42,1.2-0.68,1.78c-0.26,0.58-0.55,1.14-0.91,1.66c0.18-1.25,0.32-2.46,0.38-3.67c0.06-1.2,0.07-2.39-0.06-3.53
					c-0.01-0.14-0.03-0.28-0.05-0.43c-0.02-0.14-0.04-0.28-0.07-0.42c-0.03-0.14-0.04-0.28-0.07-0.41l-0.09-0.41
					c-0.14-0.54-0.3-1.05-0.52-1.54c-0.06-0.12-0.11-0.24-0.17-0.36l-0.18-0.35c-0.14-0.22-0.27-0.45-0.42-0.65l-0.11-0.16
					l-0.12-0.15l-0.27-0.33l-0.35-0.44c-0.1-0.15-0.2-0.31-0.3-0.46c-0.38-0.63-0.67-1.29-0.87-1.96c-0.19-0.67-0.33-1.35-0.39-2.02
					c-0.12-1.34-0.04-2.66,0.17-3.93c0.21-1.27,0.55-2.5,0.98-3.69c0.22-0.59,0.46-1.18,0.73-1.75
					C547.78-814.62,548.07-815.18,548.41-815.71z"/>
			</g>
		</g>
	</g>
	<g>
		<g>
			<g>
				<path class="st1" d="M564.06-1256.13v-47.35c0-12.45-12.21-22.57-27.21-22.57H164.3c-15.01,0-27.21,10.13-27.21,22.57v47.35
					c0,1.04,0.09,2.79,0.26,3.79H563.8C563.97-1253.34,564.06-1255.09,564.06-1256.13z"/>
				<path class="st0" d="M130.46-1256.13v-47.35c0-15.51,15.15-28.07,33.84-28.07h372.54c18.69,0,33.84,12.57,33.84,28.07v47.35
					c0,1.04-0.07,2.79-0.21,3.79h6.66c0.11-1.01,0.18-2.76,0.18-3.79v-47.35c0-18.51-18.16-33.57-40.47-33.57H164.3
					c-22.32,0-40.47,15.06-40.47,33.57v47.35c0,1.04,0.07,2.78,0.18,3.79h6.66C130.53-1253.35,130.46-1255.09,130.46-1256.13z"/>
				<path class="st0" d="M570.69-1303.48c0-15.51-15.15-28.07-33.84-28.07H164.3c-18.69,0-33.84,12.57-33.84,28.07v47.35
					c0,1.04,0.07,2.79,0.21,3.79h6.68c-0.17-1.01-0.26-2.75-0.26-3.79v-47.35c0-12.45,12.21-22.57,27.21-22.57h372.54
					c15.01,0,27.21,10.13,27.21,22.57v47.35c0,1.04-0.09,2.79-0.26,3.79h6.68c0.13-1.01,0.21-2.76,0.21-3.79V-1303.48z"/>
			</g>
			<g>
				<path class="st2" d="M214.58-1289.19l-8.73,1.31c-0.29-1.45-0.96-2.54-2-3.27c-1.04-0.73-2.39-1.1-4.05-1.1
					c-2.21,0-3.97,0.63-5.28,1.9c-1.31,1.26-1.97,3.38-1.97,6.34c0,3.29,0.67,5.62,2,6.98c1.33,1.36,3.12,2.04,5.37,2.04
					c1.68,0,3.06-0.4,4.13-1.19c1.07-0.79,1.83-2.16,2.27-4.09l8.7,1.23c-0.9,3.31-2.64,5.81-5.2,7.5c-2.56,1.69-6,2.54-10.3,2.54
					c-4.89,0-8.8-1.28-11.71-3.84c-2.91-2.56-4.36-6.11-4.36-10.64c0-4.58,1.46-8.15,4.38-10.7c2.92-2.55,6.87-3.83,11.85-3.83
					c4.07,0,7.31,0.73,9.72,2.18C211.8-1294.39,213.53-1292.17,214.58-1289.19z"/>
				<path class="st2" d="M219.24-1283.91c0-2.44,0.73-4.8,2.17-7.08c1.45-2.28,3.5-4.02,6.16-5.23c2.66-1.2,5.62-1.8,8.9-1.8
					c5.06,0,9.21,1.36,12.45,4.09c3.23,2.73,4.85,6.17,4.85,10.34c0,4.2-1.63,7.68-4.9,10.44c-3.27,2.76-7.38,4.14-12.34,4.14
					c-3.07,0-5.99-0.58-8.78-1.73c-2.78-1.15-4.9-2.84-6.35-5.06S219.24-1280.72,219.24-1283.91z M228.32-1283.52
					c0,2.75,0.79,4.86,2.36,6.33c1.58,1.46,3.52,2.2,5.83,2.2c2.31,0,4.25-0.73,5.81-2.2c1.56-1.46,2.35-3.59,2.35-6.38
					c0-2.72-0.78-4.81-2.35-6.27c-1.57-1.46-3.5-2.2-5.81-2.2c-2.31,0-4.25,0.73-5.83,2.2
					C229.11-1288.38,228.32-1286.27,228.32-1283.52z"/>
				<path class="st2" d="M256.83-1297.4h4.92v-2.09c0-2.33,0.3-4.08,0.9-5.23c0.6-1.15,1.7-2.09,3.31-2.81
					c1.61-0.72,3.64-1.08,6.1-1.08c2.52,0,4.99,0.31,7.41,0.94l-1.2,5.12c-1.41-0.28-2.76-0.42-4.07-0.42
					c-1.28,0-2.2,0.25-2.76,0.75c-0.56,0.5-0.84,1.45-0.84,2.86v1.96h6.62v5.78h-6.62v21.98h-8.85v-21.98h-4.92V-1297.4z"/>
				<path class="st2" d="M278.32-1297.4h4.92v-2.09c0-2.33,0.3-4.08,0.9-5.23c0.6-1.15,1.7-2.09,3.31-2.81
					c1.61-0.72,3.64-1.08,6.1-1.08c2.52,0,4.99,0.31,7.41,0.94l-1.2,5.12c-1.41-0.28-2.76-0.42-4.07-0.42
					c-1.28,0-2.2,0.25-2.76,0.75c-0.56,0.5-0.84,1.45-0.84,2.86v1.96h6.62v5.78h-6.62v21.98h-8.85v-21.98h-4.92V-1297.4z"/>
				<path class="st2" d="M323.07-1278.47l8.82,1.23c-1.13,2.68-2.93,4.73-5.37,6.13c-2.45,1.4-5.51,2.1-9.19,2.1
					c-5.82,0-10.13-1.58-12.92-4.73c-2.21-2.53-3.31-5.72-3.31-9.57c0-4.6,1.45-8.2,4.35-10.81c2.9-2.6,6.56-3.91,11-3.91
					c4.98,0,8.91,1.36,11.78,4.09c2.88,2.73,4.25,6.9,4.13,12.53h-22.18c0.06,2.18,0.78,3.87,2.14,5.08
					c1.37,1.21,3.07,1.82,5.1,1.82c1.39,0,2.55-0.31,3.5-0.94C321.87-1276.07,322.58-1277.08,323.07-1278.47z M323.57-1285.89
					c-0.06-2.13-0.72-3.74-1.98-4.85c-1.26-1.11-2.79-1.66-4.6-1.66c-1.93,0-3.53,0.58-4.79,1.75c-1.26,1.17-1.88,2.75-1.86,4.76
					H323.57z"/>
				<path class="st2" d="M358.96-1278.47l8.82,1.23c-1.13,2.68-2.92,4.73-5.37,6.13c-2.45,1.4-5.51,2.1-9.18,2.1
					c-5.82,0-10.13-1.58-12.92-4.73c-2.21-2.53-3.31-5.72-3.31-9.57c0-4.6,1.45-8.2,4.35-10.81c2.9-2.6,6.56-3.91,11-3.91
					c4.98,0,8.9,1.36,11.78,4.09c2.88,2.73,4.25,6.9,4.13,12.53h-22.18c0.06,2.18,0.78,3.87,2.14,5.08
					c1.37,1.21,3.07,1.82,5.11,1.82c1.38,0,2.55-0.31,3.5-0.94C357.76-1276.07,358.47-1277.08,358.96-1278.47z M359.46-1285.89
					c-0.06-2.13-0.73-3.74-1.98-4.85c-1.26-1.11-2.79-1.66-4.6-1.66c-1.93,0-3.53,0.58-4.79,1.75c-1.26,1.17-1.88,2.75-1.86,4.76
					H359.46z"/>
				<path class="st2" d="M403.86-1269.64v-31.84h-13.71v-6.48h36.71v6.48h-13.68v31.84H403.86z"/>
				<path class="st2" d="M432.88-1269.64v-38.32h34.25v6.48H442.2v8.49h23.19v6.46H442.2v10.43h25.81v6.46H432.88z"/>
				<path class="st2" d="M476.04-1269.64v-38.32h9.33v17.02l18.84-17.02h12.54l-17.39,14.92l18.34,23.39h-12.07l-12.7-17.98
					l-7.56,6.4v11.58H476.04z"/>
			</g>
		</g>
		<g>
			<polygon class="st3" points="191.15,-1252.34 146.36,-1050.06 204.7,-1050.06 236.7,-1252.34 			"/>
			<polygon class="st3" points="282.25,-1252.34 263.05,-1050.06 321.4,-1050.06 327.8,-1252.34 			"/>
			<polygon class="st4" points="145.6,-1252.34 88.01,-1050.06 146.36,-1050.06 191.15,-1252.34 			"/>
			<polygon class="st4" points="236.7,-1252.34 204.7,-1050.06 263.05,-1050.06 282.25,-1252.34 			"/>
			<polygon class="st3" points="100.05,-1252.34 29.66,-1050.06 88.01,-1050.06 145.6,-1252.34 			"/>
			<polygon class="st4" points="54.5,-1252.34 -28.69,-1050.06 29.66,-1050.06 100.05,-1252.34 			"/>
			<polygon class="st4" points="418.9,-1252.34 438.1,-1050.06 496.44,-1050.06 464.45,-1252.34 			"/>
			<polygon class="st4" points="646.65,-1252.34 601.1,-1252.34 671.49,-1050.06 729.84,-1050.06 			"/>
			<polygon class="st3" points="555.55,-1252.34 613.14,-1050.06 671.49,-1050.06 601.1,-1252.34 			"/>
			<polygon class="st4" points="327.8,-1252.34 321.4,-1050.06 379.75,-1050.06 373.35,-1252.34 			"/>
			<polygon class="st3" points="373.35,-1252.34 379.75,-1050.06 438.1,-1050.06 418.9,-1252.34 			"/>
			<polygon class="st3" points="464.45,-1252.34 496.44,-1050.06 554.79,-1050.06 510,-1252.34 			"/>
			<polygon class="st4" points="510,-1252.34 554.79,-1050.06 613.14,-1050.06 555.55,-1252.34 			"/>
			<path class="st0" d="M0.49-989.06L0.49-989.06c-16.11,0-29.17-10.83-29.17-24.2v-36.8h58.35v36.8
				C29.66-999.9,16.6-989.06,0.49-989.06z"/>
			<path class="st1" d="M58.83-989.06L58.83-989.06c-16.11,0-29.17-10.83-29.17-24.2v-36.8h58.35v36.8
				C88.01-999.9,74.95-989.06,58.83-989.06z"/>
			<path class="st0" d="M117.18-989.06L117.18-989.06c-16.11,0-29.17-10.83-29.17-24.2v-36.8h58.35v36.8
				C146.36-999.9,133.29-989.06,117.18-989.06z"/>
			<path class="st1" d="M175.53-989.06L175.53-989.06c-16.11,0-29.17-10.83-29.17-24.2v-36.8h58.35v36.8
				C204.7-999.9,191.64-989.06,175.53-989.06z"/>
			<path class="st0" d="M233.88-989.06L233.88-989.06c-16.11,0-29.17-10.83-29.17-24.2v-36.8h58.35v36.8
				C263.05-999.9,249.99-989.06,233.88-989.06z"/>
			<path class="st1" d="M292.23-989.06L292.23-989.06c-16.11,0-29.17-10.83-29.17-24.2v-36.8h58.35v36.8
				C321.4-999.9,308.34-989.06,292.23-989.06z"/>
			<path class="st0" d="M350.57-989.06L350.57-989.06c-16.11,0-29.17-10.83-29.17-24.2v-36.8h58.35v36.8
				C379.75-999.9,366.69-989.06,350.57-989.06z"/>
			<path class="st1" d="M408.92-989.06L408.92-989.06c-16.11,0-29.17-10.83-29.17-24.2v-36.8h58.35v36.8
				C438.1-999.9,425.03-989.06,408.92-989.06z"/>
			<path class="st0" d="M467.27-989.06L467.27-989.06c-16.11,0-29.17-10.83-29.17-24.2v-36.8h58.35v36.8
				C496.44-999.9,483.38-989.06,467.27-989.06z"/>
			<path class="st1" d="M525.62-989.06L525.62-989.06c-16.11,0-29.17-10.83-29.17-24.2v-36.8h58.35v36.8
				C554.79-999.9,541.73-989.06,525.62-989.06z"/>
			<path class="st0" d="M583.97-989.06L583.97-989.06c-16.11,0-29.17-10.83-29.17-24.2v-36.8h58.35v36.8
				C613.14-999.9,600.08-989.06,583.97-989.06z"/>
			<path class="st1" d="M642.31-989.06L642.31-989.06c-16.11,0-29.17-10.83-29.17-24.2v-36.8h58.35v36.8
				C671.49-999.9,658.43-989.06,642.31-989.06z"/>
			<path class="st0" d="M700.66-989.06L700.66-989.06c-16.11,0-29.17-10.83-29.17-24.2v-36.8h58.35v36.8
				C729.84-999.9,716.78-989.06,700.66-989.06z"/>
		</g>
	</g>
	<g>
		<rect x="120.07" y="-735.06" class="st5" width="489" height="339"/>
		<g>
			<path class="st0" d="M618.57-720.06h-508c-7.73,0-14-6.27-14-14s6.27-14,14-14h508c7.73,0,14,6.27,14,14
				S626.31-720.06,618.57-720.06z"/>
		</g>
	</g>
	<g>
		<path class="st6" d="M546.28-396.12h73.95c-0.87-23.37-10.25-44.6-25.14-60.67l-52.27,52.27
			C544.54-402.06,545.75-399.21,546.28-396.12z"/>
		<path class="st6" d="M513.71-409.71c2.44-1.71,5.27-2.9,8.32-3.44v-73.96c-23.34,0.89-44.54,10.27-60.59,25.13L513.71-409.71z"/>
		<path class="st6" d="M461.31-323.25c16.03,14.9,37.21,24.31,60.55,25.24V-372c-3.05-0.56-5.86-1.78-8.29-3.51L461.31-323.25z"/>
		<path class="st6" d="M508.55-404.56l-52.27-52.27c-14.87,16.04-24.25,37.22-25.16,60.54h73.97
			C505.64-399.33,506.84-402.13,508.55-404.56z"/>
		<path class="st6" d="M505.07-389h-73.95c0.87,23.33,10.22,44.53,25.06,60.59l52.28-52.28C506.77-383.14,505.59-385.96,505.07-389z
			"/>
		<path class="st6" d="M529.15-371.94V-298c23.36-0.85,44.59-10.2,60.67-25.06l-52.28-52.28
			C535.07-373.64,532.22-372.46,529.15-371.94z"/>
		<path class="st6" d="M542.72-380.46l52.26,52.26c14.91-16.05,24.33-37.26,25.24-60.63h-73.97
			C545.69-385.76,544.47-382.91,542.72-380.46z"/>
		<path class="st6" d="M589.94-461.95c-16.06-14.88-37.27-24.28-60.63-25.17v73.96c3.07,0.54,5.91,1.75,8.36,3.47L589.94-461.95z"/>
		<path class="st0" d="M606.63-473.53c-21.63-21.63-50.38-33.54-80.96-33.54v229c30.58,0,59.34-11.91,80.96-33.54
			c21.63-21.63,33.54-50.38,33.54-80.96C640.17-423.15,628.26-451.9,606.63-473.53z M620.23-396.12h-73.95
			c-0.53-3.08-1.73-5.94-3.46-8.4l52.27-52.27C609.97-440.72,619.36-419.49,620.23-396.12z M529.31-487.11
			c23.36,0.89,44.57,10.28,60.63,25.17l-52.27,52.27c-2.45-1.72-5.29-2.93-8.36-3.47V-487.11z M529.15-298v-73.94
			c3.08-0.52,5.92-1.7,8.39-3.4l52.28,52.28C573.74-308.21,552.51-298.85,529.15-298z M594.98-328.2l-52.26-52.26
			c1.74-2.45,2.97-5.3,3.52-8.37h73.97C619.31-365.47,609.89-344.25,594.98-328.2z"/>
		<path class="st1" d="M444.71-473.53c-21.63,21.63-33.54,50.38-33.54,80.96c0,30.58,11.91,59.34,33.54,80.96
			c21.63,21.63,50.38,33.54,80.96,33.54v-229C495.09-507.06,466.33-495.15,444.71-473.53z M456.28-456.83l52.27,52.27
			c-1.71,2.43-2.91,5.24-3.45,8.28h-73.97C432.03-419.61,441.42-440.79,456.28-456.83z M431.11-389h73.95
			c0.52,3.04,1.7,5.86,3.39,8.31l-52.28,52.28C441.33-344.47,431.98-365.67,431.11-389z M521.86-298.01
			c-23.33-0.93-44.52-10.34-60.55-25.24l52.26-52.26c2.43,1.73,5.24,2.95,8.29,3.51V-298.01z M522.03-413.15
			c-3.05,0.54-5.88,1.73-8.32,3.44l-52.27-52.27c16.05-14.87,37.25-24.24,60.59-25.13V-413.15z"/>
	</g>
	<g>
		<path class="st6" d="M174.9-371.85h47.47c-0.56-15-6.58-28.63-16.14-38.95l-33.55,33.55C173.78-375.66,174.56-373.83,174.9-371.85
			z"/>
		<path class="st6" d="M153.99-380.57c1.57-1.1,3.38-1.86,5.34-2.21v-47.48c-14.98,0.57-28.59,6.59-38.9,16.13L153.99-380.57z"/>
		<path class="st6" d="M120.36-325.07c10.29,9.56,23.89,15.61,38.87,16.2v-47.49c-1.96-0.36-3.76-1.14-5.32-2.25L120.36-325.07z"/>
		<path class="st6" d="M150.68-377.27l-33.55-33.55c-9.54,10.3-15.57,23.89-16.15,38.87h47.49
			C148.81-373.9,149.58-375.71,150.68-377.27z"/>
		<path class="st6" d="M148.44-367.28h-47.47c0.56,14.98,6.56,28.58,16.08,38.89l33.56-33.56
			C149.53-363.51,148.78-365.32,148.44-367.28z"/>
		<path class="st6" d="M163.9-356.32v47.46c15-0.54,28.62-6.55,38.95-16.09l-33.56-33.56C167.7-357.42,165.88-356.66,163.9-356.32z"
			/>
		<path class="st6" d="M172.62-361.79l33.54,33.54c9.57-10.3,15.62-23.92,16.2-38.92h-47.49
			C174.52-365.19,173.74-363.37,172.62-361.79z"/>
		<path class="st6" d="M202.93-414.1c-10.31-9.55-23.93-15.58-38.92-16.15v47.48c1.97,0.35,3.79,1.12,5.37,2.23L202.93-414.1z"/>
		<path class="st0" d="M213.64-421.53c-13.88-13.88-32.34-21.53-51.97-21.53v147c19.63,0,38.09-7.65,51.97-21.53
			c13.88-13.88,21.53-32.34,21.53-51.97C235.17-389.19,227.52-407.65,213.64-421.53z M222.37-371.85H174.9
			c-0.34-1.98-1.11-3.81-2.22-5.39l33.55-33.55C215.79-400.48,221.81-386.85,222.37-371.85z M164.01-430.26
			c14.99,0.57,28.61,6.6,38.92,16.15l-33.55,33.55c-1.57-1.11-3.4-1.88-5.37-2.23V-430.26z M163.9-308.86v-47.46
			c1.97-0.33,3.8-1.09,5.39-2.18l33.56,33.56C192.53-315.41,178.9-309.41,163.9-308.86z M206.16-328.25l-33.54-33.54
			c1.12-1.57,1.91-3.4,2.26-5.38h47.49C221.78-352.17,215.73-338.55,206.16-328.25z"/>
		<path class="st1" d="M109.7-421.53c-13.88,13.88-21.53,32.34-21.53,51.97c0,19.63,7.65,38.09,21.53,51.97
			c13.88,13.88,32.34,21.53,51.97,21.53v-147C142.04-443.06,123.58-435.42,109.7-421.53z M117.13-410.82l33.55,33.55
			c-1.1,1.56-1.87,3.36-2.22,5.31h-47.49C101.56-386.92,107.59-400.52,117.13-410.82z M100.97-367.28h47.47
			c0.34,1.95,1.09,3.76,2.17,5.33l-33.56,33.56C107.53-338.69,101.53-352.3,100.97-367.28z M159.23-308.87
			c-14.98-0.6-28.58-6.64-38.87-16.2l33.54-33.54c1.56,1.11,3.37,1.89,5.32,2.25V-308.87z M159.33-382.78
			c-1.96,0.34-3.77,1.11-5.34,2.21l-33.55-33.55c10.31-9.54,23.91-15.56,38.9-16.13V-382.78z"/>
	</g>
	<g>
		<g>
			<path class="st5" d="M274.74-835.06H166.5c-8.7,19.41-13.88,43.63-13.88,69.91c0,5.12,0.2,10.15,0.58,15.09h134.84
				c0.38-4.94,0.58-9.98,0.58-15.09C288.62-791.43,283.44-815.65,274.74-835.06z"/>
			<path class="st5" d="M272.37-840.06c-4.43-8.83-9.63-16.52-15.43-22.75c-2.54-2.74-6.14-4.25-9.87-4.25h-52.89
				c-3.74,0-7.33,1.52-9.87,4.25c-5.8,6.23-11,13.92-15.43,22.75H272.37z"/>
		</g>
		<g>
			<g>
				<path class="st1" d="M241.36-793.5c0.02-0.07,0.03-0.1,0.03-0.1h-18.8h-3.39h-18.8c0,0,3.24,11.25,9.71,16.18
					s6.17,12.64,6.17,12.64h2.93h3.39h2.93c0,0-0.31-7.71,6.17-12.64c1.05-0.8,2.01-1.76,2.88-2.81c1.49,1.76,3.71,2.89,6.19,2.89
					c4.46,0,8.09-3.63,8.09-8.09C248.84-789.69,245.54-793.19,241.36-793.5z M240.75-778.73c-2.16,0-4.08-1.03-5.31-2.62
					c2.84-3.84,4.67-8.47,5.47-10.79c3.62,0.09,6.54,3.06,6.54,6.7C247.46-781.73,244.45-778.73,240.75-778.73z"/>
				<path class="st1" d="M232.6-764.32h-23.43c-0.26,0-0.46,0.21-0.46,0.46s0.21,0.46,0.46,0.46h23.43c0.26,0,0.46-0.21,0.46-0.46
					S232.86-764.32,232.6-764.32z"/>
				<path class="st1" d="M229.37-763.24h-16.95c-0.26,0-0.46,0.21-0.46,0.46s0.21,0.46,0.46,0.46h16.95c0.26,0,0.46-0.21,0.46-0.46
					S229.62-763.24,229.37-763.24z"/>
			</g>
			<g>
				<path class="st1" d="M216.88-812.36c-0.09,0.66-0.17,1.31-0.23,1.96c-0.06,0.65-0.11,1.28-0.12,1.91l0,0.24l0,0.23
					c0,0.16,0.01,0.31,0.02,0.46c0.02,0.31,0.05,0.61,0.1,0.9c0.05,0.29,0.12,0.57,0.21,0.84c0.09,0.27,0.21,0.51,0.35,0.74
					l0.11,0.17l0.12,0.15l0.03,0.04l0.04,0.06l0.09,0.11l0.09,0.11l0.08,0.12c0.21,0.32,0.39,0.66,0.51,1.01
					c0.12,0.35,0.21,0.71,0.25,1.07l0.03,0.27c0.01,0.09,0.01,0.18,0.02,0.27c0.01,0.09,0,0.18,0,0.27c0,0.09,0,0.18-0.01,0.26
					c-0.03,0.7-0.17,1.38-0.37,2.03c-0.1,0.32-0.22,0.64-0.36,0.95c-0.14,0.31-0.29,0.61-0.48,0.89c0.1-0.66,0.17-1.31,0.2-1.95
					c0.03-0.64,0.04-1.27-0.03-1.88c-0.01-0.08-0.02-0.15-0.03-0.23c-0.01-0.08-0.02-0.15-0.04-0.22c-0.01-0.07-0.02-0.15-0.04-0.22
					l-0.05-0.22c-0.07-0.29-0.16-0.56-0.27-0.82c-0.03-0.06-0.06-0.13-0.09-0.19l-0.1-0.18c-0.07-0.12-0.14-0.24-0.23-0.34
					l-0.06-0.08l-0.07-0.08l-0.14-0.17l-0.18-0.23c-0.06-0.08-0.11-0.16-0.16-0.24c-0.2-0.33-0.36-0.69-0.46-1.04
					c-0.1-0.36-0.17-0.72-0.21-1.08c-0.07-0.72-0.02-1.42,0.09-2.09c0.11-0.68,0.29-1.33,0.52-1.96c0.12-0.32,0.24-0.63,0.39-0.93
					C216.54-811.78,216.7-812.08,216.88-812.36z"/>
				<path class="st1" d="M223.43-823.81c-0.15,1.17-0.3,2.31-0.41,3.45c-0.11,1.14-0.19,2.26-0.21,3.37l0,0.41l0.01,0.41
					c0,0.27,0.02,0.55,0.03,0.82c0.04,0.54,0.09,1.07,0.18,1.58c0.09,0.51,0.21,1.01,0.37,1.48c0.16,0.47,0.37,0.91,0.61,1.3
					l0.19,0.29l0.21,0.27l0.05,0.07l0.08,0.1l0.16,0.2l0.16,0.2l0.14,0.21c0.37,0.56,0.68,1.16,0.89,1.78
					c0.21,0.62,0.37,1.25,0.45,1.89l0.05,0.47c0.02,0.16,0.02,0.31,0.03,0.47c0.01,0.16,0.01,0.31,0.01,0.47
					c0,0.16,0,0.31-0.01,0.47c-0.05,1.24-0.29,2.43-0.65,3.57c-0.18,0.57-0.39,1.13-0.64,1.67c-0.25,0.54-0.52,1.07-0.85,1.56
					c0.17-1.17,0.3-2.31,0.36-3.44c0.06-1.13,0.06-2.24-0.06-3.31c-0.01-0.13-0.03-0.27-0.05-0.4c-0.02-0.13-0.04-0.26-0.06-0.39
					c-0.03-0.13-0.04-0.26-0.07-0.39l-0.08-0.38c-0.13-0.5-0.28-0.99-0.48-1.44c-0.05-0.11-0.1-0.23-0.16-0.34l-0.17-0.33
					c-0.13-0.21-0.25-0.42-0.4-0.61l-0.1-0.15l-0.12-0.14l-0.25-0.3l-0.32-0.41c-0.1-0.14-0.19-0.29-0.29-0.43
					c-0.36-0.59-0.63-1.21-0.82-1.84c-0.18-0.63-0.31-1.27-0.36-1.9c-0.12-1.26-0.04-2.49,0.16-3.68c0.2-1.19,0.51-2.34,0.92-3.46
					c0.21-0.56,0.43-1.1,0.68-1.64C222.83-822.79,223.11-823.31,223.43-823.81z"/>
			</g>
		</g>
		<rect x="203.12" y="-862.06" class="st0" width="35" height="13"/>
		<g>
			<circle class="st0" cx="211.12" cy="-845.06" r="2"/>
			<circle class="st0" cx="220.62" cy="-845.06" r="2"/>
			<circle class="st0" cx="230.12" cy="-845.06" r="2"/>
		</g>
	</g>
</g>
</svg>
