<?xml version="1.0" encoding="utf-8"?>
<!-- Generator: Adobe Illustrator 24.0.1, SVG Export Plug-In . SVG Version: 6.00 Build 0)  -->
<svg version="1.1" id="Layer_1" xmlns="http://www.w3.org/2000/svg" xmlns:xlink="http://www.w3.org/1999/xlink" x="0px" y="0px"
	 viewBox="0 0 1366 768" style="enable-background:new 0 0 1366 768;" xml:space="preserve">
<style type="text/css">
	.st0{fill:#331C0B;}
	.st1{fill:#A05C24;}
</style>
<g>
	<g>
		<path class="st0" d="M877.83,234.6c1.48,0.28,5.71,1.27,9.68,3.8c5.56,3.54,8.15,8.46,8.15,15.46c0,1.96-2.31,7.72-10.94,16.91
			c-7.8,8.29-19.11,17.58-31.85,26.17c-26.81,18.06-55.37,30.2-71.06,30.2c-1.51,0-1.68-0.26-1.89-0.59
			c-0.66-1.03-6.09-11.26,7.47-53.66c5-15.62,10.86-30.19,14.27-38.29H877.83 M878.74,223.35h-84.48c0,0-51.9,115.05-12.46,115.05
			c39.45,0,125.11-57.48,125.11-84.53S878.74,223.35,878.74,223.35L878.74,223.35z"/>
		<g>
			<path class="st1" d="M688.26,410.45c-81.73,0-148.22-66.49-148.22-148.22v-33.26h296.45v33.26
				C836.49,343.96,769.99,410.45,688.26,410.45z"/>
			<path class="st0" d="M830.86,234.6v27.63c0,38.09-14.83,73.9-41.77,100.83c-26.93,26.93-62.74,41.77-100.83,41.77
				c-38.09,0-73.9-14.83-100.83-41.77c-26.93-26.93-41.77-62.74-41.77-100.83V234.6H830.86 M842.11,223.35h-307.7v38.89
				c0,84.97,68.88,153.85,153.85,153.85h0c84.97,0,153.85-68.88,153.85-153.85V223.35L842.11,223.35z"/>
		</g>
	</g>
	<path class="st0" d="M571.49,494.59c0-3.65,0.9-7.18,2.7-10.59s4.35-6.02,7.64-7.82c3.3-1.8,6.98-2.7,11.04-2.7
		c6.28,0,11.43,2.04,15.44,6.12c4.01,4.08,6.02,9.23,6.02,15.46c0,6.28-2.03,11.49-6.08,15.62c-4.05,4.13-9.15,6.2-15.31,6.2
		c-3.81,0-7.43-0.86-10.89-2.58c-3.45-1.72-6.08-4.24-7.88-7.57S571.49,499.36,571.49,494.59z M582.74,495.18
		c0,4.12,0.98,7.27,2.93,9.46c1.95,2.19,4.37,3.28,7.23,3.28c2.87,0,5.27-1.09,7.21-3.28c1.94-2.19,2.91-5.37,2.91-9.54
		c0-4.07-0.97-7.19-2.91-9.38c-1.94-2.19-4.35-3.28-7.21-3.28c-2.87,0-5.28,1.09-7.23,3.28
		C583.72,487.91,582.74,491.06,582.74,495.18z"/>
	<path class="st0" d="M618.68,474.42h6.1v-3.13c0-3.49,0.37-6.1,1.11-7.82c0.74-1.72,2.11-3.12,4.1-4.2
		c1.99-1.08,4.52-1.62,7.56-1.62c3.13,0,6.19,0.47,9.19,1.41l-1.49,7.66c-1.75-0.42-3.43-0.63-5.04-0.63
		c-1.59,0-2.73,0.37-3.42,1.11c-0.69,0.74-1.04,2.17-1.04,4.28v2.93h8.21v8.64h-8.21v32.88h-10.99v-32.88h-6.1V474.42z"/>
	<path class="st0" d="M651.09,474.42h6.1v-3.13c0-3.49,0.37-6.1,1.11-7.82c0.74-1.72,2.11-3.12,4.1-4.2
		c1.99-1.08,4.52-1.62,7.56-1.62c3.13,0,6.19,0.47,9.19,1.41l-1.49,7.66c-1.75-0.42-3.43-0.63-5.04-0.63
		c-1.59,0-2.73,0.37-3.42,1.11c-0.69,0.74-1.04,2.17-1.04,4.28v2.93h8.21v8.64h-8.21v32.88h-10.99v-32.88h-6.1V474.42z"/>
	<path class="st0" d="M710.75,502.73l10.95,1.84c-1.41,4.01-3.63,7.07-6.67,9.17c-3.04,2.1-6.84,3.15-11.4,3.15
		c-7.22,0-12.56-2.36-16.03-7.08c-2.74-3.78-4.1-8.55-4.1-14.31c0-6.88,1.8-12.27,5.4-16.17c3.6-3.9,8.14-5.84,13.64-5.84
		c6.18,0,11.05,2.04,14.62,6.12c3.57,4.08,5.28,10.33,5.12,18.75h-27.52c0.08,3.26,0.96,5.79,2.66,7.6
		c1.69,1.81,3.81,2.72,6.33,2.72c1.72,0,3.17-0.47,4.34-1.41C709.26,506.32,710.15,504.81,710.75,502.73z M711.38,491.62
		c-0.08-3.18-0.9-5.6-2.46-7.25s-3.47-2.48-5.71-2.48c-2.4,0-4.38,0.87-5.94,2.62s-2.33,4.12-2.31,7.12H711.38z"/>
	<path class="st0" d="M753.89,502.73l10.95,1.84c-1.41,4.01-3.63,7.07-6.67,9.17c-3.04,2.1-6.84,3.15-11.4,3.15
		c-7.22,0-12.56-2.36-16.03-7.08c-2.74-3.78-4.1-8.55-4.1-14.31c0-6.88,1.8-12.27,5.4-16.17c3.6-3.9,8.14-5.84,13.64-5.84
		c6.18,0,11.05,2.04,14.62,6.12c3.57,4.08,5.28,10.33,5.12,18.75H737.9c0.08,3.26,0.96,5.79,2.66,7.6c1.69,1.81,3.81,2.72,6.33,2.72
		c1.72,0,3.17-0.47,4.34-1.41C752.4,506.32,753.29,504.81,753.89,502.73z M754.51,491.62c-0.08-3.18-0.9-5.6-2.46-7.25
		s-3.47-2.48-5.71-2.48c-2.4,0-4.38,0.87-5.94,2.62s-2.33,4.12-2.31,7.12H754.51z"/>
	<path class="st0" d="M786.78,515.94v-47.62h-17.01v-9.7h45.54v9.7h-16.97v47.62H786.78z"/>
	<path class="st0" d="M819.66,515.94v-57.31h42.5v9.7h-30.92v12.71H860v9.66h-28.77v15.6h32.02v9.66H819.66z"/>
	<path class="st0" d="M867.59,515.94v-57.31h11.57v25.45l23.38-25.45h15.56l-21.58,22.32l22.75,34.99H904.3l-15.76-26.9l-9.38,9.58
		v17.32H867.59z"/>
	<g>
		<path class="st0" d="M554.93,497.8c-0.62,3.28-1.68,5.58-3.19,6.93c-1.5,1.34-3.44,2.01-5.8,2.01c-3.16,0-5.67-1.15-7.55-3.45
			c-1.87-2.3-2.81-6.24-2.81-11.82c0-5.02,0.92-8.59,2.77-10.73c1.84-2.14,4.32-3.21,7.41-3.21c0.13,0,0.25,0.01,0.38,0.01v-9.78
			c-0.19,0-0.36-0.02-0.55-0.02c-6.99,0-12.54,2.16-16.64,6.48c-4.1,4.32-6.15,10.36-6.15,18.12c0,7.67,2.04,13.68,6.13,18.01
			c4.09,4.34,9.57,6.51,16.44,6.51c6.05,0,10.87-1.43,14.47-4.29c3.6-2.86,6.03-7.1,7.3-12.7L554.93,497.8z"/>
	</g>
	<g>
		<path class="st0" d="M911.17,440.08h-381c-2.76,0-5-2.24-5-5s2.24-5,5-5h381c2.76,0,5,2.24,5,5S913.93,440.08,911.17,440.08z"/>
	</g>
</g>
</svg>
